<?xml version="1.0" encoding="utf-8"?>
<!-- Generator: Adobe Illustrator 16.0.0, SVG Export Plug-In . SVG Version: 6.00 Build 0)  -->
<!DOCTYPE svg PUBLIC "-//W3C//DTD SVG 1.1//EN" "http://www.w3.org/Graphics/SVG/1.1/DTD/svg11.dtd">
<svg version="1.1" id="Capa_1" xmlns="http://www.w3.org/2000/svg" xmlns:xlink="http://www.w3.org/1999/xlink" x="0px" y="0px"
	 width="56.693px" height="56.693px" viewBox="227.466 227.466 56.693 56.693"
	 enable-background="new 227.466 227.466 56.693 56.693" xml:space="preserve">
<g>
	<g>
		<path d="M232.907,247.271c0.718,0.507,2.88,2.01,6.486,4.509c3.606,2.499,6.369,4.424,8.289,5.773
			c0.211,0.147,0.659,0.469,1.344,0.966c0.686,0.493,1.255,0.896,1.708,1.201s1.002,0.65,1.645,1.029
			c0.644,0.378,1.25,0.663,1.819,0.853c0.57,0.19,1.097,0.284,1.582,0.284h0.031h0.033c0.486,0,1.013-0.094,1.582-0.284
			c0.569-0.189,1.176-0.475,1.819-0.853c0.643-0.382,1.19-0.724,1.646-1.029c0.452-0.306,1.021-0.708,1.708-1.201
			c0.684-0.497,1.135-0.818,1.346-0.966c1.939-1.35,6.874-4.777,14.804-10.282c1.54-1.075,2.826-2.372,3.859-3.891
			c1.036-1.519,1.552-3.11,1.552-4.776c0-1.392-0.502-2.585-1.504-3.576s-2.188-1.486-3.558-1.486h-46.571
			c-1.624,0-2.873,0.548-3.749,1.645c-0.875,1.097-1.312,2.468-1.312,4.112c0,1.33,0.58,2.769,1.74,4.319
			C230.366,245.168,231.6,246.386,232.907,247.271z"/>
		<path d="M280.997,250.657c-6.918,4.682-12.171,8.318-15.756,10.915c-1.203,0.886-2.178,1.577-2.928,2.071
			c-0.747,0.494-1.743,1.003-2.989,1.519c-1.244,0.519-2.403,0.775-3.479,0.775h-0.031h-0.033c-1.076,0-2.236-0.257-3.48-0.775
			c-1.244-0.516-2.241-1.024-2.99-1.519c-0.747-0.494-1.723-1.186-2.925-2.071c-2.848-2.088-8.089-5.727-15.723-10.915
			c-1.204-0.801-2.268-1.719-3.196-2.753v25.119c0,1.393,0.496,2.585,1.487,3.576c0.991,0.99,2.183,1.485,3.576,1.485h46.569
			c1.392,0,2.581-0.495,3.573-1.485c0.993-0.994,1.488-2.184,1.488-3.576v-25.119C283.252,248.917,282.198,249.834,280.997,250.657z
			"/>
	</g>
</g>
</svg>
