<?xml version="1.0" encoding="utf-8"?>
<!-- Generator: Adobe Illustrator 16.0.0, SVG Export Plug-In . SVG Version: 6.00 Build 0)  -->
<!DOCTYPE svg PUBLIC "-//W3C//DTD SVG 1.1//EN" "http://www.w3.org/Graphics/SVG/1.1/DTD/svg11.dtd">
<svg version="1.1" id="Capa_1" xmlns="http://www.w3.org/2000/svg" xmlns:xlink="http://www.w3.org/1999/xlink" x="0px" y="0px"
	 width="56.693px" height="56.693px" viewBox="227.466 227.466 56.693 56.693"
	 enable-background="new 227.466 227.466 56.693 56.693" xml:space="preserve">
<path d="M266.017,272.516c0-3.479-1.229-5.754-2.551-6.87c8.404-0.91,17.235-4.051,17.235-18.31c0-4.052-1.464-7.363-3.871-9.96
	c0.377-0.938,1.652-4.712-0.379-9.824c0,0-3.163-0.995-10.341,3.805c-3.022-0.824-6.233-1.234-9.442-1.252
	c-3.211,0.019-6.422,0.428-9.444,1.252c-7.226-4.8-10.389-3.805-10.389-3.805c-2.031,5.112-0.755,8.886-0.33,9.824
	c-2.424,2.598-3.888,5.909-3.888,9.96c0,14.222,8.818,17.413,17.207,18.342c-1.08,0.928-2.051,2.562-2.393,4.964
	c-2.159,0.947-7.633,2.587-11.001-3.088c0,0-1.994-3.565-5.787-3.824c0,0-3.687-0.048-0.265,2.254c0,0,2.484,1.146,4.204,5.43
	c0,0,2.216,7.219,12.724,4.98c0.015,3.094,0.047,5.429,0.047,6.312c0,0.054-0.003,0.111-0.007,0.169
	c2.979,0.837,6.124,1.284,9.372,1.284c3.208,0,6.314-0.438,9.262-1.256c-0.007-0.075-0.011-0.15-0.011-0.225
	C265.969,281.475,266.017,277.482,266.017,272.516z"/>
</svg>
