<?xml version="1.0" encoding="utf-8"?>
<!-- Generator: Adobe Illustrator 16.0.0, SVG Export Plug-In . SVG Version: 6.00 Build 0)  -->
<!DOCTYPE svg PUBLIC "-//W3C//DTD SVG 1.1//EN" "http://www.w3.org/Graphics/SVG/1.1/DTD/svg11.dtd">
<svg version="1.1" id="Capa_1" xmlns="http://www.w3.org/2000/svg" xmlns:xlink="http://www.w3.org/1999/xlink" x="0px" y="0px"
	 width="56.693px" height="56.693px" viewBox="227.466 227.466 56.693 56.693"
	 enable-background="new 227.466 227.466 56.693 56.693" xml:space="preserve">
<g>
	<path d="M271.708,282.4c0,0.974,0.785,1.76,1.76,1.76h8.746c0.967,0,1.76-0.786,1.76-1.76v-16.535
		c0-7.186,0.079-20.269-13.925-20.269c-6.324,0-9.293,2.314-11.291,5.313v-2.98c0-0.972-0.79-1.76-1.759-1.76h-8.46
		c-0.971,0-1.759,0.788-1.759,1.76V282.4c0,0.974,0.789,1.76,1.759,1.76h8.46c0.969,0,1.759-0.786,1.759-1.76v-18.48
		c0.22-2.485,1.312-8.018,6.701-8.018c6.95,0,6.249,8.084,6.249,10.472V282.4z"/>
	<path d="M239.469,246.169h-8.15c-1.056,0-1.914,0.857-1.914,1.915v34.16c0,1.058,0.858,1.915,1.914,1.915h8.15
		c1.058,0,1.915-0.857,1.915-1.915v-34.16C241.384,247.027,240.527,246.169,239.469,246.169z"/>
	<circle cx="235.394" cy="235.208" r="7.741"/>
</g>
</svg>
